<?xml version="1.0" encoding="UTF-8" standalone="no"?>
<!-- Generator: Adobe Illustrator 15.0.2, SVG Export Plug-In . SVG Version: 6.00 Build 0)  -->

<svg
   xmlns:dc="http://purl.org/dc/elements/1.1/"
   xmlns:cc="http://creativecommons.org/ns#"
   xmlns:rdf="http://www.w3.org/1999/02/22-rdf-syntax-ns#"
   xmlns:svg="http://www.w3.org/2000/svg"
   xmlns="http://www.w3.org/2000/svg"
   xmlns:sodipodi="http://sodipodi.sourceforge.net/DTD/sodipodi-0.dtd"
   xmlns:inkscape="http://www.inkscape.org/namespaces/inkscape"
   version="1.1"
   id="Layer_1"
   x="0px"
   y="0px"
   width="394px"
   height="246px"
   viewBox="0 0 394 246"
   enable-background="new 0 0 394 246"
   xml:space="preserve"
   inkscape:version="0.48.3.1 r9886"
   sodipodi:docname="logo.svg"><metadata
   id="metadata13"><rdf:RDF><cc:Work
       rdf:about=""><dc:format>image/svg+xml</dc:format><dc:type
         rdf:resource="http://purl.org/dc/dcmitype/StillImage" /></cc:Work></rdf:RDF></metadata><defs
   id="defs11" /><sodipodi:namedview
   pagecolor="#ffffff"
   bordercolor="#666666"
   borderopacity="1"
   objecttolerance="10"
   gridtolerance="10"
   guidetolerance="10"
   inkscape:pageopacity="0"
   inkscape:pageshadow="2"
   inkscape:window-width="1362"
   inkscape:window-height="729"
   id="namedview9"
   showgrid="false"
   showguides="true"
   inkscape:guide-bbox="true"
   inkscape:zoom="0.85279188"
   inkscape:cx="197"
   inkscape:cy="123"
   inkscape:window-x="0"
   inkscape:window-y="37"
   inkscape:window-maximized="0"
   inkscape:current-layer="Layer_1"><sodipodi:guide
     orientation="0,1"
     position="213.41667,124.29762"
     id="guide3010" /><sodipodi:guide
     orientation="0,1"
     position="227.4881,167.68452"
     id="guide3012" /><sodipodi:guide
     orientation="0,1"
     position="199.34524,79.738095"
     id="guide3014" /></sodipodi:namedview>
<path
   d="M270.018,0c-27.896,0-53.594,9.388-74.125,25.164C175.361,9.388,149.662,0,121.767,0  C54.518,0,0,54.519,0,121.769c0,67.248,54.518,121.766,121.767,121.766c27.895,0,53.594-9.385,74.125-25.162  c20.532,15.777,46.229,25.162,74.125,25.162c67.25,0,121.768-54.518,121.768-121.766C391.785,54.519,337.268,0,270.018,0z"
   id="path3"
   fill="#007DC5" />
<path
   fill="#ADCAEA"
   d="M72.101,171.714c0,1.797-0.439,3.243-2.225,3.288v0.027c-0.965,0.078,0.228,0.117-0.543,0.117  c-6.054,0-10.334-1.33-12.839-3.992c-2.506-2.66-3.76-7.172-3.76-13.533v-21.684c0-3.433-0.503-5.986-1.504-7.664  c-0.995-1.662-2.732-2.857-5.205-3.594c-1.254-0.496-2.146-1.705-2.146-3.135c0-1.41,0.864-2.613,2.088-3.126v-0.006  c4.513-1.194,6.768-4.742,6.768-10.643V84.64c0-5.744,1.291-9.891,3.874-12.436c2.584-2.544,6.826-3.816,12.725-3.816h0.543v0.004  c1.849,0.013,2.346,1.511,2.346,3.361c0,1.852-0.497,2.32-2.346,2.331v0.04c-4.436,0.078-7.423,0.83-8.965,2.256  S58.6,80.565,58.6,84.65v23.582c0,2.66-0.35,5.109-1.044,7.344c-0.807,2.508-2.871,4.591-6.187,6.247  c2.66,1.427,4.53,3.161,5.611,5.204c1.078,2.045,1.619,4.938,1.619,8.676v22.716c0,4.396,0.73,7.315,2.197,8.764  c1.465,1.445,4.491,2.188,9.08,2.227v0.047C71.661,169.5,72.101,169.916,72.101,171.714L72.101,171.714z M319.717,171.714  c0,1.797,1.439,3.243,3.225,3.288v0.027c0.965,0.078-0.229,0.117,0.543,0.117c6.057,0,10.334-1.33,12.84-3.992  c2.51-2.66,3.762-7.172,3.762-13.533v-21.684c0-3.433,0.502-5.986,1.504-7.664c0.996-1.662,2.73-2.857,5.205-3.594  c1.256-0.496,2.145-1.705,2.145-3.135c0-1.41-0.861-2.613-2.088-3.126v-0.006c-4.512-1.194-6.768-4.742-6.768-10.643V84.64  c0-5.744-1.291-9.891-3.875-12.436c-2.582-2.544-6.824-3.816-12.725-3.816h-0.543v0.004c-1.848,0.013-3.346,1.511-3.346,3.361  c0,1.852,1.498,2.32,3.346,2.331v0.04c4.436,0.078,7.424,0.83,8.965,2.256c1.543,1.426,2.314,4.186,2.314,8.271v23.582  c0,2.66,0.348,5.109,1.041,7.344c0.809,2.508,2.873,4.591,6.188,6.247c-2.66,1.427-4.529,3.161-5.611,5.204  c-1.076,2.045-1.617,4.938-1.617,8.676v22.716c0,4.396-0.732,7.315-2.197,8.764c-1.467,1.445-4.492,2.188-9.082,2.227v0.047  C321.156,169.5,319.717,169.916,319.717,171.714L319.717,171.714z"
   id="path5" />
<path
   d="m 407.1249,-158.76157 c 0,3.533 -1.131,6.51 -3.391,8.932 -2.26,2.422 -5.047,3.631 -8.363,3.631 -1.357,0 -2.684,-0.238 -3.979,-0.717 -1.42,-0.508 -2.701,-1.38 -3.842,-2.615 v 0.752 h -0.021 c -0.006,1.428 -1.162,2.58 -2.592,2.58 -1.428,0 -2.586,-1.152 -2.59,-2.58 h -0.002 v -28.051 c 0,-1.527 1.236,-2.766 2.766,-2.766 1.525,0 2.764,1.237 2.764,2.766 v 8.491 c 0.311,-0.263 0.688,-0.563 1.133,-0.901 1.807,-1.279 3.896,-1.92 6.271,-1.92 3.332,0 6.139,1.188 8.422,3.574 2.282,2.383 3.424,5.324 3.424,8.824 l 0,0 z m -5.83,0.047 c 0,-1.959 -0.656,-3.601 -1.967,-4.928 -1.312,-1.327 -2.932,-1.991 -4.857,-1.991 -2.021,0 -3.664,0.661 -4.93,1.98 -1.266,1.315 -1.896,3.025 -1.896,5.123 0,1.928 0.656,3.541 1.967,4.836 1.312,1.293 2.932,1.94 4.859,1.94 1.943,0 3.564,-0.666 4.867,-2 1.305,-1.331 1.957,-2.984 1.957,-4.96 l 0,0 z m -30.97,-12.365 c -1.557,0 -2.818,1.238 -2.818,2.767 v 8.604 c 0,5.535 -2.146,8.305 -6.441,8.305 -2.299,0 -3.811,-0.777 -4.531,-2.336 -0.426,-0.896 -0.637,-1.903 -0.637,-3.03 -0.031,-0.339 -0.049,-1.319 -0.049,-2.938 v -8.15 c 0.025,-0.148 0.049,-0.299 0.049,-0.454 0,-1.525 -1.264,-2.767 -2.82,-2.767 -1.559,0 -2.82,1.238 -2.82,2.767 l 0.002,0.005 v 8.601 c 0,2.483 0.02,4.025 0.068,4.627 0.145,1.744 0.535,3.217 1.182,4.42 0.725,1.355 1.859,2.438 3.41,3.25 1.549,0.811 3.275,1.215 5.182,1.215 2.877,0 5.088,-0.842 6.633,-2.521 0.281,-0.309 0.668,-0.776 1.154,-1.409 v 1.072 l -0.027,0.27 c 0,1.43 1.186,2.59 2.645,2.59 1.457,0 2.637,-1.152 2.643,-2.58 h 0.004 v -19.537 c -0.007,-1.533 -1.269,-2.771 -2.829,-2.771 l 0,0 z m -28.483,18.994 h -4.191 v -23.884 l -0.008,-0.008 0.012,-0.112 c 0,-1.392 -1.129,-2.521 -2.52,-2.521 h -7.232 c -1.393,0 -2.521,1.131 -2.521,2.521 0,1.395 1.129,2.521 2.521,2.521 v 0.024 h 4.27 v 21.458 h -4.27 c -1.393,0 -2.521,1.131 -2.521,2.521 0,1.394 1.129,2.521 2.521,2.521 h 13.941 c 1.395,0 2.521,-1.128 2.521,-2.521 -10e-4,-1.389 -1.13,-2.52 -2.523,-2.52 l 0,0 z m -27.539,-11.714 c 1.004,1.046 3.297,1.046 4.379,0 1.082,-1.046 1.082,-2.741 0,-3.788 -5.062,-4.885 -13.295,-4.885 -18.355,0 -5.059,4.889 -5.059,12.838 0.004,17.725 2.527,2.443 5.852,3.664 9.176,3.664 3.322,0 6.645,-1.223 9.178,-3.664 1.082,-1.047 1.082,-2.741 0,-3.789 -1.084,-1.045 -3.373,-1.045 -4.379,0 -2.689,2.799 -7.062,2.799 -9.752,0 -1.346,-1.397 -2.02,-3.235 -2.02,-5.073 0,-1.837 0.674,-3.677 2.02,-5.074 2.685,-2.797 7.06,-2.797 9.749,-10e-4 z m -110.089,13.77 c -2.473,-2.452 -3.708,-5.397 -3.708,-8.838 0,-3.438 1.235,-6.373 3.708,-8.803 2.473,-2.429 5.457,-3.644 8.953,-3.644 3.495,0 6.486,1.218 8.975,3.656 2.488,2.437 3.731,5.367 3.731,8.789 0,3.438 -1.239,6.386 -3.721,8.838 -2.479,2.453 -5.476,3.679 -8.985,3.679 -3.496,10e-4 -6.481,-1.223 -8.953,-3.677 l 0,0 z m 1.736,-8.791 c 0,2.004 0.703,3.713 2.109,5.125 1.406,1.414 3.109,2.121 5.107,2.121 2.014,0 3.72,-0.707 5.118,-2.121 1.399,-1.412 2.099,-3.137 2.099,-5.172 0,-2.002 -0.699,-3.711 -2.099,-5.125 -1.398,-1.414 -3.104,-2.119 -5.118,-2.119 -1.998,0 -3.701,0.709 -5.107,2.131 -1.407,1.423 -2.109,3.143 -2.109,5.16 l 0,0 z m 64.017,-2.593 h 12.912 c -0.797,-2.836 -3.055,-4.369 -6.512,-4.369 -3.156,0 -5.378,1.533 -6.4,4.369 z m -13.125,-15.287 v 27.574 c 0,1.43 -1.145,2.59 -2.559,2.59 -1.412,0 -2.561,-1.16 -2.561,-2.59 v -0.004 h -0.023 v -0.55 c -0.273,0.354 -0.616,0.709 -1.027,1.062 -1.768,1.513 -4,2.268 -6.697,2.268 -3.246,0 -5.984,-1.21 -8.217,-3.631 -2.232,-2.42 -3.348,-5.398 -3.348,-8.93 0,-3.519 1.119,-6.463 3.359,-8.838 2.24,-2.375 5.021,-3.562 8.342,-3.562 1.219,0 2.362,0.169 3.43,0.509 1.279,0.417 2.574,1.188 3.885,2.312 v -8.211 c 0,-1.516 1.213,-2.742 2.709,-2.742 1.496,0 2.707,1.227 2.707,2.743 l 0,0 z m -5.232,17.88 c 0,-2.051 -0.626,-3.727 -1.875,-5.021 -1.249,-1.294 -2.873,-1.941 -4.868,-1.941 -1.89,0 -3.478,0.67 -4.767,2.013 -1.287,1.342 -1.931,3.007 -1.931,4.997 0,1.929 0.647,3.555 1.943,4.881 1.294,1.327 2.88,1.99 4.754,1.99 1.936,0 3.542,-0.66 4.823,-1.979 1.281,-1.319 1.921,-2.965 1.921,-4.94 l 0,0 z m -63.08,-5.13 c 0.996,1.047 3.264,1.047 4.336,0 1.071,-1.047 1.071,-2.742 0,-3.787 -5.01,-4.885 -13.161,-4.885 -18.17,0 -5.008,4.886 -5.008,12.836 0,17.723 2.505,2.443 5.793,3.664 9.084,3.664 3.29,0 6.58,-1.221 9.086,-3.664 1.071,-1.046 1.071,-2.742 0,-3.787 -1.072,-1.045 -3.34,-1.047 -4.336,0 -2.662,2.797 -6.993,2.798 -9.654,0 -1.331,-1.397 -1.996,-3.235 -1.996,-5.073 0,-1.838 0.665,-3.677 1.996,-5.074 2.661,-2.797 6.992,-2.797 9.654,-0.002 l 0,0 z m 98.558,14.078 c -2.56,2.35 -5.845,3.521 -9.129,3.521 l -1.183,-0.003 -0.031,0.003 c -3.67,0 -6.696,-1.168 -9.08,-3.505 -2.383,-2.338 -3.574,-5.295 -3.574,-8.872 0,-3.5 1.233,-6.474 3.702,-8.918 2.467,-2.445 5.385,-3.667 8.827,-3.667 3.521,0 6.437,1.234 8.753,3.701 1.885,2.009 3.004,4.375 3.352,7.23 l -0.021,0.059 0.021,0.229 c 0,1.791 -1.416,3.242 -3.161,3.242 h -15.645 c 0.311,1.496 1.113,2.751 2.418,3.631 1.303,0.878 2.91,1.318 4.822,1.318 l 0.885,-0.002 c 1.619,-0.041 3.455,-0.646 4.781,-1.82 l -0.004,0.005 c 1.032,-1.085 3.071,-1.085 4.184,0 1.113,1.084 1.113,2.842 0,3.928 l 0.083,-0.08 0,0 z m -71.124,47.912 c -2.472,-2.455 -3.707,-5.398 -3.707,-8.841 0,-3.438 1.235,-6.373 3.707,-8.801 2.474,-2.43 5.456,-3.645 8.952,-3.645 3.496,0 6.485,1.219 8.974,3.653 2.487,2.438 3.731,5.367 3.731,8.791 0,3.439 -1.24,6.386 -3.72,8.838 -2.479,2.453002 -5.476,3.679002 -8.985,3.679002 -3.495,0.002 -6.478,-1.224 -8.952,-3.674002 l 0,0 z m 1.736,-8.791 c 0,2.004 0.704,3.711 2.11,5.123 1.405,1.413 3.108,2.118 5.106,2.118 2.014,0 3.72,-0.705 5.118,-2.118 1.398,-1.412 2.098,-3.138 2.098,-5.173 0,-2.002 -0.699,-3.711 -2.098,-5.125 -1.398,-1.411 -3.104,-2.116 -5.118,-2.116 -1.998,0 -3.701,0.709 -5.106,2.131 -1.407,1.42 -2.11,3.139 -2.11,5.16 l 0,0 z m 94.863,-17.543 v 27.575 c 0,1.429002 -1.145,2.589002 -2.561,2.589002 -1.412,0 -2.559,-1.16 -2.559,-2.589002 v -0.004 h -0.023 v -0.551 c -0.273,0.354 -0.617,0.709 -1.027,1.062 -1.77,1.513002 -4.002,2.269002 -6.697,2.269002 -3.246,0 -5.982,-1.209 -8.217,-3.633002 -2.233,-2.42 -3.35,-5.398 -3.35,-8.931 0,-3.516 1.121,-6.463 3.36,-8.838 2.238,-2.375 5.021,-3.562 8.344,-3.562 1.221,0 2.361,0.17 3.43,0.51 1.279,0.416 2.574,1.187 3.885,2.312 v -8.212 c 0.002,-1.514 1.215,-2.739 2.709,-2.739 1.493,0.002 2.706,1.227 2.706,2.742 l 0,0 z m -5.235,17.883 c 0,-2.053 -0.625,-3.726 -1.873,-5.021 -1.25,-1.295 -2.873,-1.942 -4.869,-1.942 -1.891,0 -3.479,0.672 -4.766,2.016 -1.287,1.342 -1.932,3.006 -1.932,4.996 0,1.928 0.646,3.555 1.943,4.881 1.295,1.328 2.879,1.99 4.754,1.99 1.936,0 3.543,-0.66 4.82,-1.979 1.285,-1.322 1.923,-2.968 1.923,-4.941 l 0,0 z m -25.359,6.242 h -4.189 v -23.886 l -0.008,-0.008 0.012,-0.111 c 0,-1.393 -1.129,-2.52 -2.523,-2.52 h -7.23 c -1.394,0 -2.521,1.129 -2.521,2.52 0,1.394 1.129,2.521 2.521,2.521 v 0.021 h 4.268 v 21.461 h -4.268 c -1.394,0 -2.521,1.13 -2.521,2.521 0,1.391 1.129,2.521002 2.521,2.521002 h 13.941 c 1.395,0 2.521,-1.132002 2.521,-2.521002 -0.002,-1.39 -1.131,-2.519 -2.524,-2.519 l 0,0 z m -74.243,-16.271 c 0,-1.516 -1.23,-2.744 -2.745,-2.744 -1.189,0 -2.193,0.765 -2.575,1.822 l -0.011,0.004 -5.649,15.807 -4.46,-15.194 -0.013,0.002 c -0.505,-1.418 -1.847,-2.439 -3.438,-2.439 -1.59,0 -2.933,1.021 -3.439,2.439 l -0.015,-0.002 -4.46,15.194 -5.649,-15.807 -0.013,-0.004 c -0.38,-1.062 -1.383,-1.822 -2.573,-1.822 -1.515,0 -2.745,1.229 -2.745,2.744 0,0.379 0.077,0.738 0.216,1.066 l -0.003,0.004 7.217,18.729 h 0.001 c 0.591,1.383002 1.965,2.355002 3.562,2.355002 1.604,0 2.98,-0.979 3.567,-2.367002 l 4.332,-15.443 4.332,15.443 c 0.587,1.391002 1.964,2.367002 3.567,2.367002 1.598,0 2.972,-0.976 3.562,-2.355002 h 0.001 l 7.217,-18.729 -0.004,-0.004 c 0.14,-0.326 0.218,-0.687 0.218,-1.066 l 0,0 z m 54.599,-0.143 c 0,-1.375 -0.967,-2.593 -2.67,-2.593 -2.687,0 -4.061,0.729 -5.467,1.859 -1.576,1.271 -2.82,3.104 -3.465,4.689 v -3.896 h -0.008 c -0.047,-1.475 -1.252,-2.66 -2.738,-2.66 -1.486,0 -2.693,1.187 -2.739,2.66 h -0.009 v 19.33 l -0.016,0.154 c 0,1.521002 1.236,2.756002 2.756,2.756002 1.487,0 2.695,-1.187 2.745,-2.660002 h 0.009 v -4.315 c 0,-2.712 0.244,-4.773 0.73,-6.189 0.486,-1.412 1.277,-2.648 2.37,-3.703 1.093,-1.057 2.809,-2.832 5.908,-2.832 l 0.006,-0.002 c 1.431,-0.006 2.588,-1.169 2.588,-2.598 l 0,0 z m 71.25,18.623 c -2.473,-2.455 -3.707,-5.398 -3.707,-8.841 0,-3.438 1.234,-6.373 3.707,-8.801 2.475,-2.43 5.457,-3.645 8.953,-3.645 3.496,0 6.484,1.219 8.973,3.653 2.488,2.438 3.732,5.367 3.732,8.791 0,3.439 -1.24,6.386 -3.721,8.838 -2.48,2.453002 -5.479,3.679002 -8.984,3.679002 -3.496,0.002 -6.479,-1.224 -8.953,-3.674002 l 0,0 z m 1.734,-8.791 c 0,2.004 0.705,3.711 2.111,5.123 1.404,1.413 3.109,2.118 5.107,2.118 2.014,0 3.719,-0.705 5.117,-2.118 1.398,-1.412 2.098,-3.138 2.098,-5.173 0,-2.002 -0.699,-3.711 -2.098,-5.125 -1.398,-1.411 -3.104,-2.116 -5.117,-2.116 -1.998,0 -3.703,0.709 -5.107,2.131 -1.406,1.42 -2.111,3.139 -2.111,5.16 l 0,0 z m 43.627,-9.832 c 0,-1.375 -0.969,-2.593 -2.672,-2.593 -2.686,0 -4.061,0.729 -5.467,1.859 -1.576,1.271 -2.82,3.104 -3.463,4.689 v -3.896 h -0.01 c -0.047,-1.475 -1.252,-2.66 -2.738,-2.66 -1.486,0 -2.693,1.187 -2.738,2.66 h -0.01 v 19.33 l -0.016,0.154 c 0,1.521002 1.234,2.756002 2.756,2.756002 1.488,0 2.695,-1.187 2.746,-2.660002 h 0.01 v -4.315 c 0,-2.712 0.242,-4.773 0.729,-6.189 0.486,-1.412 1.277,-2.648 2.369,-3.703 1.094,-1.057 2.811,-2.832 5.908,-2.832 l 0.006,-0.002 c 1.432,-0.006 2.59,-1.169 2.59,-2.598 l 0,0 z m 5.013,23.489002 c 1.008,-1.008 2.65,-0.998 3.672,0.021 0,0 1.893,2.02 5.121,2.02 7.6,0 7.121,-7.457002 7.121,-7.457002 -1.312,1.789 -3.393,3.966002 -7.658,3.966002 -3.322,0 -6.104,-1.188 -8.344,-3.562002 -2.238,-2.375 -3.359,-5.084 -3.359,-8.602 0,-3.529 1.117,-6.511 3.35,-8.931 2.232,-2.422 4.971,-3.631 8.219,-3.631 2.693,0 4.928,0.756 6.695,2.269 0.41,0.354 0.754,0.709 1.027,1.062 v -0.551 h 0.023 v -0.004 c 0,-1.43 1.146,-2.59 2.559,-2.59 1.416,0 2.561,1.16 2.561,2.59 v 15.506 c 0,6.074002 -1.32,9.584002 -3.75,12.014002 -2.07,2.072 -5.736,2.974 -8.436,2.974 -5.877,0 -8.779,-3.42 -8.779,-3.42 -1.022,-1.022 -1.031,-2.665 -0.022,-3.674 l 0,0 z m 13.834,-18.642002 c -1.281,-1.32 -2.889,-1.98 -4.824,-1.98 -1.873,0 -3.459,0.664 -4.754,1.99 -1.295,1.326 -1.943,2.953 -1.943,4.883 0,1.99 0.645,3.416 1.934,4.759 1.287,1.342 2.875,2.014 4.766,2.014 1.996,0 3.619,-0.648 4.869,-1.941 1.248,-1.297 1.873,-2.731 1.873,-4.782 -0.003,-1.981 -0.641,-3.624 -1.921,-4.943 l 0,0 z m -75.16,10.834 c -1.922,0 -3.479,1.559 -3.479,3.48 0,1.921002 1.557,3.479002 3.479,3.479002 1.924,0 3.479,-1.557 3.479,-3.479002 0,-1.922 -1.555,-3.48 -3.479,-3.48 z"
   id="path7"
   inkscape:connector-curvature="0"
   style="fill:#ffffff" />
<flowRoot
   xml:space="preserve"
   id="flowRoot2992"
   style="font-size:40px;font-style:italic;font-variant:normal;font-weight:bold;font-stretch:normal;line-height:125%;letter-spacing:0px;word-spacing:0px;fill:#000000;fill-opacity:1;stroke:none;font-family:Monospace;-inkscape-font-specification:Monospace Bold Italic"
   transform="translate(-48.077381,-17.589286)"><flowRegion
     id="flowRegion2994"><rect
       id="rect2996"
       width="317.77972"
       height="87.946419"
       x="86.773811"
       y="74.797623"
       style="font-style:italic;font-variant:normal;font-weight:bold;font-stretch:normal;font-family:Monospace;-inkscape-font-specification:Monospace Bold Italic" /></flowRegion><flowPara
     id="flowPara2998"
     style="font-size:50px;font-style:normal;font-variant:normal;font-weight:bold;font-stretch:normal;text-align:center;letter-spacing:0.60000001999999997px;text-anchor:middle;fill:#ffffff;font-family:Droid Sans Mono;-inkscape-font-specification:Droid Sans Mono Bold">codeclub</flowPara><flowPara
     id="flowPara3000"
     style="font-size:48px;font-style:normal;font-variant:normal;font-weight:bold;font-stretch:normal;fill:#ececec;font-family:Droid Sans Mono;-inkscape-font-specification:Droid Sans Mono Bold" /><flowPara
     id="flowPara3002"
     style="font-size:48px;font-style:normal;font-variant:normal;font-weight:bold;font-stretch:normal;fill:#ececec;font-family:Droid Sans Mono;-inkscape-font-specification:Droid Sans Mono Bold" /><flowPara
     id="flowPara3004"
     style="font-size:48px;font-style:normal;font-variant:normal;font-weight:bold;font-stretch:normal;fill:#ececec;font-family:Droid Sans Mono;-inkscape-font-specification:Droid Sans Mono Bold" /></flowRoot><text
   xml:space="preserve"
   style="font-size:40px;font-style:normal;font-weight:normal;line-height:125%;letter-spacing:0px;word-spacing:0px;fill:#000000;fill-opacity:1;stroke:none;font-family:Sans"
   x="96.15477"
   y="160.53571"
   id="text3006"
   sodipodi:linespacing="125%"><tspan
     sodipodi:role="line"
     id="tspan3008"
     x="96.15477"
     y="160.53571"
     style="font-size:50px;font-style:normal;font-variant:normal;font-weight:bold;font-stretch:normal;fill:#ffffff;font-family:Droid Sans Mono;-inkscape-font-specification:Droid Sans Mono Bold">cat.org</tspan></text>
</svg>